<svg id="Capa_1" data-name="Capa 1" xmlns="http://www.w3.org/2000/svg" viewBox="0 0 140 98">
  <circle cx="66.97705" cy="28.18479" r="10.42907" style="fill: #2b3456"/>
  <g>
    <path d="M112.08928,64.55481a1.93976,1.93976,0,0,1-1.87068-1.43109l-9.086-33.46237a1.93965,1.93965,0,0,1,1.36962-2.382l14.003-3.75318a1.93641,1.93641,0,0,1,2.37462,1.36834l9.03479,33.52159a1.9389,1.9389,0,0,1-1.376,2.37972l-13.95207,3.6946A1.96109,1.96109,0,0,1,112.08928,64.55481Zm-6.70344-34.03256,8.07081,29.72455,10.20561-2.70212-8.02343-29.77Z" style="fill: #2ba5db"/>
    <path d="M105.53376,62.5897a11.83414,11.83414,0,0,1-6.56032-1.98881L80.11915,48.0892a5.648,5.648,0,0,0-6.15787-.05026l-7.18334,4.59711a6.025,6.025,0,0,1-7.32356-9.51215L71.79926,31.78175a12.1707,12.1707,0,0,1,11.75484-2.6669l9.45836,2.89325a11.64118,11.64118,0,0,0,6.54047.0842l3.94079-1.09462a1.93867,1.93867,0,0,1,2.39029,1.35971l7.18815,26.47624a1.93859,1.93859,0,0,1-1.28608,2.3573l-2.64993.83913A11.91625,11.91625,0,0,1,105.53376,62.5897ZM77.00051,43.2715a9.51716,9.51716,0,0,1,5.26272,1.58541l18.85432,12.51265a7.95972,7.95972,0,0,0,6.84813.96206l.87593-.27661-6.1899-22.79765-2.05988.57211a15.50561,15.50561,0,0,1-8.714-.11269l-9.45838-2.89325a8.27728,8.27728,0,0,0-7.99493,1.81465L62.07837,45.981a2.14,2.14,0,0,0-.4972,2.48057,2.1455,2.1455,0,0,0,3.10551.907l7.18366-4.59679A9.50655,9.50655,0,0,1,77.00051,43.2715Z" style="fill: #2ba5db"/>
    <path d="M38.23157,64.462a1.93554,1.93554,0,0,1-.8212-.18281l-8.803-4.11785a1.93955,1.93955,0,0,1-.97744-2.4812L37.49169,33.192a1.9463,1.9463,0,0,1,2.08261-1.1945l6.70247.99088a10.29987,10.29987,0,0,0,4.99667-.50776l13.97287-5.08856a8.32,8.32,0,0,1,5.961.09957l5.32066,2.1412a1.93981,1.93981,0,0,1-1.449,3.59887l-5.32065-2.1412a4.43454,4.43454,0,0,0-3.18493-.05315L52.60114,36.125a14.16247,14.16247,0,0,1-6.89073.70082l-5.19069-.76709L31.91458,57.42526l7.13979,3.34051a1.93944,1.93944,0,0,1-.8228,3.6962Z" style="fill: #2ba5db"/>
    <path d="M40.37854,71.95425A5.80191,5.80191,0,0,1,35.6572,62.802l2.45495-3.46633a5.79932,5.79932,0,0,1,9.46669,6.7015l-2.45368,3.466a5.76451,5.76451,0,0,1-3.757,2.36691A5.951,5.951,0,0,1,40.37854,71.95425Zm2.47-11.18848a1.93517,1.93517,0,0,0-.32784.02817,1.907,1.907,0,0,0-1.24253.78342l-2.45463,3.46633a1.92267,1.92267,0,0,0,.45814,2.67714,1.92052,1.92052,0,0,0,2.6765-.45846l2.45368-3.466a1.921,1.921,0,0,0-1.56332-3.03059Z" style="fill: #2ba5db"/>
    <path d="M45.67455,78.25588a5.94884,5.94884,0,0,1-4.85-9.39081l7.37863-10.42171a5.95278,5.95278,0,1,1,9.71673,6.87951L50.54316,75.74458A5.95126,5.95126,0,0,1,45.67455,78.25588Zm7.38984-18.44674a2.07231,2.07231,0,0,0-1.69523.875L43.98957,71.10584a2.0752,2.0752,0,1,0,3.38757,2.398L54.75385,63.0821a2.07312,2.07312,0,0,0-1.68946-3.273Z" style="fill: #2ba5db"/>
    <path d="M53.97461,80.42846a5.94884,5.94884,0,0,1-4.85006-9.39081L54.38663,63.603a5.95357,5.95357,0,1,1,9.71865,6.87951l-5.26176,7.43433A5.9517,5.9517,0,0,1,53.97461,80.42846Zm5.27617-15.46065a2.01511,2.01511,0,0,0-.35443.03042,2.06218,2.06218,0,0,0-1.3437.84553l-5.26206,7.43466a2.07606,2.07606,0,0,0,.49334,2.89324,2.08083,2.08083,0,0,0,2.89325-.49528l5.26208-7.43465a2.07523,2.07523,0,0,0-1.68848-3.27392Z" style="fill: #2ba5db"/>
    <path d="M61.21683,84.537a6.11974,6.11974,0,0,1-4.98066-9.65237l4.14346-5.85117a6.11611,6.11611,0,1,1,9.98277,7.069L66.22183,81.9524A6.07918,6.07918,0,0,1,62.26024,84.448,6.19709,6.19709,0,0,1,61.21683,84.537ZM65.3763,70.32914a2.25622,2.25622,0,0,0-.38163.033,2.222,2.222,0,0,0-1.45.91308l-4.1425,5.84989a2.24084,2.24084,0,0,0,.534,3.119,2.23745,2.23745,0,0,0,3.1196-.53338l4.14057-5.84989a2.23879,2.23879,0,0,0-1.82008-3.53164Z" style="fill: #2ba5db"/>
    <path d="M78.34421,82.391a4.681,4.681,0,0,1-1.95167-.42549L67.237,77.78717a1.93936,1.93936,0,0,1,1.61007-3.52876l9.15645,4.17836a.82493.82493,0,0,0,.73476-1.47624l-5.09334-2.738a1.93984,1.93984,0,1,1,1.83736-3.417l5.09239,2.738a4.70469,4.70469,0,0,1-2.23052,8.8475Z" style="fill: #2ba5db"/>
    <path d="M85.6492,79.68409a5.52775,5.52775,0,0,1-2.42646-.56443L78.1995,76.66983a1.93994,1.93994,0,1,1,1.701-3.48714l5.02325,2.44983a1.61763,1.61763,0,0,0,1.52074-2.85323L71.66962,64.19976a1.9393,1.9393,0,0,1,1.94685-3.35459L88.39262,69.4247A5.50333,5.50333,0,0,1,85.6492,79.68409Z" style="fill: #2ba5db"/>
    <path d="M90.837,74.48861a5.68865,5.68865,0,0,1-2.88077-.786L76.37173,66.93005a1.93971,1.93971,0,1,1,1.95839-3.34883l11.58452,6.77257a1.85019,1.85019,0,0,0,1.90076-3.17466L77.31683,58.2852a1.93974,1.93974,0,1,1,2.0285-3.30689l14.49858,8.89361a5.72927,5.72927,0,0,1-1.47272,10.40826A5.7871,5.7871,0,0,1,90.837,74.48861Z" style="fill: #2ba5db"/>
    <path d="M96.64367,69.09974a6.61923,6.61923,0,0,1-3.547-1.03314l-5.68149-3.58735a1.93967,1.93967,0,0,1,2.07045-3.28063L95.16711,64.786A2.79562,2.79562,0,0,0,98.206,60.09312L88.0206,53.333a1.939,1.939,0,1,1,2.14408-3.23133l10.18575,6.75913a6.67949,6.67949,0,0,1-3.70676,12.23891Z" style="fill: #2ba5db"/>
    <path d="M27.80346,64.11172a1.92475,1.92475,0,0,1-.69538-.13L12.70333,58.44144a1.93822,1.93822,0,0,1-1.11384-2.50682L24.074,23.50636a1.93751,1.93751,0,0,1,2.46136-1.12983l15.20614,5.42472a1.93923,1.93923,0,0,1,1.13717,2.57693l-1.79349,4.276-9.85634,24.475-1.643,3.81114A1.94112,1.94112,0,0,1,27.80346,64.11172Zm-11.897-8.59363,10.8552,4.17452.88653-2.056L37.49169,33.192c.01057-.02561,1.01714-2.4255,1.01714-2.4255L27.01459,26.66566Z" style="fill: #2ba5db"/>
  </g>
</svg>
