<svg id="Capa_1" data-name="Capa 1" xmlns="http://www.w3.org/2000/svg" viewBox="0 0 119 110">
  <circle cx="89.50887" cy="14.75831" r="10.42907" style="fill: #2b3456"/>
  <g>
    <path d="M37.50247,92.51949H14.70827a1.71146,1.71146,0,0,1-1.71192-1.71192V69.30622a1.71193,1.71193,0,1,1,3.42385,0V89.09536H35.79055V21.73405H16.4202V36.20911a1.71193,1.71193,0,0,1-3.42385,0v-16.187a1.71152,1.71152,0,0,1,1.71192-1.7122h22.7942a1.71152,1.71152,0,0,1,1.71192,1.7122V90.80757A1.71146,1.71146,0,0,1,37.50247,92.51949Z" style="fill: #2ba5db"/>
    <path d="M14.70827,71.01842a1.71152,1.71152,0,0,1-1.71192-1.7122V64.17044a1.71193,1.71193,0,1,1,3.42385,0v5.13578A1.71171,1.71171,0,0,1,14.70827,71.01842Z" style="fill: #2ba5db"/>
    <path d="M14.70827,58.27366a1.71146,1.71146,0,0,1-1.71192-1.71193V48.953a1.71193,1.71193,0,1,1,3.42385,0v7.6087A1.71165,1.71165,0,0,1,14.70827,58.27366Z" style="fill: #2ba5db"/>
    <path d="M14.70827,43.05709a1.71147,1.71147,0,0,1-1.71192-1.71193v-5.136a1.71193,1.71193,0,1,1,3.42385,0v5.136A1.71166,1.71166,0,0,1,14.70827,43.05709Z" style="fill: #2ba5db"/>
    <path d="M26.10537,40.7407a7.94471,7.94471,0,1,1,7.94471-7.9447A7.95356,7.95356,0,0,1,26.10537,40.7407Zm0-12.46556A4.52086,4.52086,0,1,0,30.62623,32.796,4.5261,4.5261,0,0,0,26.10537,28.27514Z" style="fill: #2ba5db"/>
    <path d="M32.2661,48.18806H19.94465a1.71193,1.71193,0,1,1,0-3.42385H32.2661a1.71193,1.71193,0,1,1,0,3.42385Z" style="fill: #2ba5db"/>
    <path d="M32.2661,54.43921H19.94465a1.71207,1.71207,0,1,1,0-3.42413H32.2661a1.71207,1.71207,0,1,1,0,3.42413Z" style="fill: #2ba5db"/>
    <path d="M32.2661,60.69036H19.94465a1.71207,1.71207,0,1,1,0-3.42413H32.2661a1.71207,1.71207,0,1,1,0,3.42413Z" style="fill: #2ba5db"/>
    <path d="M32.2661,66.94151H19.94465a1.71207,1.71207,0,1,1,0-3.42413H32.2661a1.71207,1.71207,0,1,1,0,3.42413Z" style="fill: #2ba5db"/>
    <path d="M37.50247,82.07105H14.70827a1.71193,1.71193,0,0,1,0-3.42385h22.7942a1.71193,1.71193,0,0,1,0,3.42385Z" style="fill: #2ba5db"/>
    <path d="M67.03613,92.51949H44.24194a1.7117,1.7117,0,0,1-1.71221-1.71192V20.02212a1.71176,1.71176,0,0,1,1.71221-1.7122H67.03613a1.71153,1.71153,0,0,1,1.71193,1.7122V90.80757A1.71147,1.71147,0,0,1,67.03613,92.51949ZM45.95386,89.09536H65.32421V21.73405H45.95386Z" style="fill: #2ba5db"/>
    <path d="M55.639,40.7407a7.94471,7.94471,0,1,1,7.94474-7.9447A7.95355,7.95355,0,0,1,55.639,40.7407Zm0-12.46556A4.52086,4.52086,0,1,0,60.15961,32.796,4.5261,4.5261,0,0,0,55.639,28.27514Z" style="fill: #2ba5db"/>
    <path d="M61.79976,48.18806h-12.32a1.71193,1.71193,0,1,1,0-3.42385h12.32a1.71193,1.71193,0,1,1,0,3.42385Z" style="fill: #2ba5db"/>
    <path d="M61.79976,54.43921h-12.32a1.71207,1.71207,0,0,1,0-3.42413h12.32a1.71207,1.71207,0,1,1,0,3.42413Z" style="fill: #2ba5db"/>
    <path d="M61.79976,60.69036h-12.32a1.71207,1.71207,0,0,1,0-3.42413h12.32a1.71207,1.71207,0,1,1,0,3.42413Z" style="fill: #2ba5db"/>
    <path d="M61.79976,66.94151h-12.32a1.71207,1.71207,0,0,1,0-3.42413h12.32a1.71207,1.71207,0,1,1,0,3.42413Z" style="fill: #2ba5db"/>
    <path d="M67.03613,82.07105H44.24194a1.71193,1.71193,0,1,1,0-3.42385H67.03613a1.71193,1.71193,0,1,1,0,3.42385Z" style="fill: #2ba5db"/>
    <path d="M85.40329,92.51949a1.70947,1.70947,0,0,1-1.65343-1.2708L65.49461,22.85762a1.71231,1.71231,0,0,1,1.21231-2.09568l22.02357-5.87841a1.71011,1.71011,0,0,1,2.09486,1.21287L109.0786,84.48775a1.71221,1.71221,0,0,1-1.212,2.09568L85.84469,92.46185A1.73036,1.73036,0,0,1,85.40329,92.51949ZM69.24315,23.62909,86.6156,88.71161l18.71474-4.99533L87.95959,18.63348Z" style="fill: #2ba5db"/>
    <path d="M81.45609,39.76521a7.95084,7.95084,0,1,1,2.04622-.26931A7.95781,7.95781,0,0,1,81.45609,39.76521Zm.00678-12.46981a4.546,4.546,0,0,0-1.17388.15571,4.48208,4.48208,0,1,0,1.17388-.15571Z" style="fill: #2ba5db"/>
    <path d="M79.02836,48.33783a1.71276,1.71276,0,0,1-.43942-3.36733l11.90349-3.17743a1.71229,1.71229,0,0,1,.88281,3.30883L79.47146,48.27905A1.7038,1.7038,0,0,1,79.02836,48.33783Z" style="fill: #2ba5db"/>
    <path d="M80.64025,54.37732a1.7126,1.7126,0,0,1-.43971-3.367l11.90378-3.17743a1.71212,1.71212,0,0,1,.88253,3.30855l-11.9035,3.17744A1.71864,1.71864,0,0,1,80.64025,54.37732Z" style="fill: #2ba5db"/>
    <path d="M82.25186,60.4171a1.71281,1.71281,0,0,1-.43971-3.36733l11.90547-3.17744a1.71229,1.71229,0,0,1,.88281,3.30884L82.695,60.3586A1.71712,1.71712,0,0,1,82.25186,60.4171Z" style="fill: #2ba5db"/>
    <path d="M83.86519,66.45659a1.71264,1.71264,0,0,1-.43974-3.36705l11.90378-3.17743a1.71215,1.71215,0,0,1,.88281,3.30855L84.30826,66.39809A1.717,1.717,0,0,1,83.86519,66.45659Z" style="fill: #2ba5db"/>
    <path d="M82.70657,82.42457a1.71264,1.71264,0,0,1-.43974-3.36705l22.02358-5.87842a1.71229,1.71229,0,0,1,.88281,3.30884L83.14964,82.36607A1.717,1.717,0,0,1,82.70657,82.42457Z" style="fill: #2ba5db"/>
    <path d="M112.13822,92.51949H11.70379a1.71207,1.71207,0,0,1,0-3.42413H112.13822a1.71207,1.71207,0,1,1,0,3.42413Z" style="fill: #2ba5db"/>
  </g>
</svg>
