<svg id="Capa_1" data-name="Capa 1" xmlns="http://www.w3.org/2000/svg" viewBox="0 0 126 125">
  <g>
    <circle cx="32.10623" cy="89.35708" r="9.6222" style="fill: #2ba5db"/>
    <path d="M47.87943,110.53908a1.78915,1.78915,0,0,1-.818-3.3812l4.5395-2.328a42.40736,42.40736,0,0,1-18.0132-10.7355c-.0298-.0295-.1521-.1624-.1793-.1955-.0366-.0316-.1852-.1678-.2192-.2027a42.46111,42.46111,0,0,1-12.0381-36.502,1.78906,1.78906,0,0,1,3.5405.5175,38.92345,38.92345,0,0,0,11.0368,33.4625l.1958.1767c.0331.033.158.1695.1879.2044a38.85722,38.85722,0,0,0,20.9482,10.8805,1.78913,1.78913,0,0,1,.5104,3.3553l-8.8769,4.5507A1.77107,1.77107,0,0,1,47.87943,110.53908Z" style="fill: #2b3456"/>
    <path d="M42.86463,63.47348l-11.1573-.0018a1.79014,1.79014,0,0,1-1.7895-1.7897v-5.2375q-.5205-.19635-1.0223-.4194l-3.7006,3.7014a1.84187,1.84187,0,0,1-2.5306,0l-7.8894-7.8885a1.78923,1.78923,0,0,1,0-2.5306l3.7006-3.7012q-.2202-.5007-.4186-1.0223h-5.2384a1.789,1.789,0,0,1-1.7894-1.7898V31.63588a1.78877,1.78877,0,0,1,1.7894-1.7894h5.2393q.19665-.5193.4185-1.0206l-3.7014-3.7015a1.78893,1.78893,0,0,1,0-2.5306l7.8894-7.8903a1.84207,1.84207,0,0,1,2.5306,0l3.7015,3.7015c.3329-.1468.6744-.2866,1.0214-.4177V12.748a1.78879,1.78879,0,0,1,1.7895-1.7894h11.1573a1.789,1.789,0,0,1,1.7897,1.7894v5.2393q.52155.19665,1.0224.4177l3.7003-3.7015a1.84207,1.84207,0,0,1,2.5306,0l7.8894,7.8903a1.78893,1.78893,0,0,1,0,2.5306l-3.7015,3.7015q.22155.5007.4186,1.0206h5.2393a1.789,1.789,0,0,1,1.7897,1.7894v11.1582a1.7893,1.7893,0,0,1-1.7897,1.7898H56.515q-.1977.5214-.4186,1.0223l3.7006,3.7012a1.78869,1.78869,0,0,1,0,2.5306l-7.8894,7.8885a1.78893,1.78893,0,0,1-2.5306,0l-3.7003-3.7014q-.502.22275-1.0224.4194v5.2393a1.79007,1.79007,0,0,1-1.7897,1.7897Zm-9.3679-3.581,7.5785.0018v-4.7271a1.79171,1.79171,0,0,1,1.2627-1.7108,16.68263,16.68263,0,0,0,2.8712-1.178,1.79332,1.79332,0,0,1,2.0996.3181l3.3337,3.3343,5.3589-5.358-3.3334-3.3346a1.78783,1.78783,0,0,1-.3182-2.0987,16.95226,16.95226,0,0,0,1.1795-2.8747,1.78809,1.78809,0,0,1,1.7091-1.2601h4.7256v-7.5793h-4.7256a1.78956,1.78956,0,0,1-1.7091-1.2599,17.09026,17.09026,0,0,0-1.1803-2.8767,1.78812,1.78812,0,0,1,.319-2.097l3.3334-3.3325-5.3589-5.3601-3.3337,3.3346a1.7936,1.7936,0,0,1-2.0996.3178,16.91065,16.91065,0,0,0-2.8738-1.1794,1.79,1.79,0,0,1-1.2601-1.7091v-4.7256h-7.5785v4.7256a1.78865,1.78865,0,0,1-1.2598,1.7091,16.968,16.968,0,0,0-2.8741,1.1794,1.79285,1.79285,0,0,1-2.0996-.3178l-3.3334-3.3346-5.3592,5.3601,3.3337,3.3325a1.78867,1.78867,0,0,1,.3187,2.097,17.14038,17.14038,0,0,0-1.1803,2.8767,1.78956,1.78956,0,0,1-1.7091,1.2599H14.608v7.5793h4.7256a1.78809,1.78809,0,0,1,1.7091,1.2601,17.00967,17.00967,0,0,0,1.1794,2.8747,1.7882,1.7882,0,0,1-.3178,2.0987l-3.3337,3.3346,5.3592,5.358,3.3334-3.3343a1.78683,1.78683,0,0,1,2.0996-.3181,16.72383,16.72383,0,0,0,2.8723,1.178,1.79171,1.79171,0,0,1,1.2616,1.7108Z" style="fill: #2b3456"/>
    <path d="M95.65573,116.26428H84.499a1.789,1.789,0,0,1-1.7895-1.7894v-5.2393c-.3468-.1311-.6885-.2709-1.0223-.4194l-3.7012,3.7014a1.78923,1.78923,0,0,1-2.5306,0l-7.8894-7.8885a1.78893,1.78893,0,0,1,0-2.5306l3.7012-3.7015q-.2211-.5007-.4192-1.0223h-5.2384a1.789,1.789,0,0,1-1.7897-1.7895V84.42878a1.7893,1.7893,0,0,1,1.7897-1.7898H70.848q.19755-.5214.4192-1.0223l-3.7012-3.7012a1.78857,1.78857,0,0,1,0-2.5305l7.8894-7.8904a1.84207,1.84207,0,0,1,2.5306,0l3.7012,3.7015q.5007-.2202,1.0223-.4177v-5.2393a1.78924,1.78924,0,0,1,1.7895-1.7897h11.1567a1.789,1.789,0,0,1,1.7895,1.7897v5.2393q.5214.19635,1.0223.4177l3.7015-3.7015a1.84194,1.84194,0,0,1,2.5305,0l7.8895,7.8904a1.78911,1.78911,0,0,1,0,2.5305l-3.7015,3.7012q.22155.5007.4195,1.0223h5.2384a1.78924,1.78924,0,0,1,1.7894,1.7898v11.1564a1.789,1.789,0,0,1-1.7894,1.7895H109.307q-.19815.52185-.4195,1.0223l3.7015,3.7015a1.78966,1.78966,0,0,1,0,2.5306l-7.8895,7.8885a1.78911,1.78911,0,0,1-2.5305,0l-3.7015-3.7014q-.5007.22275-1.0223.4194v5.2393A1.78879,1.78879,0,0,1,95.65573,116.26428Zm-9.367-3.5789h7.5776v-4.7256a1.78977,1.78977,0,0,1,1.2598-1.7091,16.83444,16.83444,0,0,0,2.8741-1.1812,1.79139,1.79139,0,0,1,2.0996.3178l3.3343,3.3346,5.3589-5.3583-3.3343-3.3343a1.79148,1.79148,0,0,1-.3181-2.1005,16.77728,16.77728,0,0,0,1.1806-2.8732,1.78782,1.78782,0,0,1,1.7091-1.2598h4.7256v-7.5776h-4.7256a1.78809,1.78809,0,0,1-1.7091-1.2601,16.774,16.774,0,0,0-1.1806-2.8729,1.792,1.792,0,0,1,.3181-2.1008l3.3343-3.3343-5.3589-5.3598-3.3343,3.3343a1.7963,1.7963,0,0,1-2.0996.3182,16.85043,16.85043,0,0,0-2.8741-1.1795,1.78986,1.78986,0,0,1-1.2598-1.7094v-4.7253h-7.5776v4.7253a1.79013,1.79013,0,0,1-1.2601,1.7094,16.84717,16.84717,0,0,0-2.8738,1.1795,1.79409,1.79409,0,0,1-2.0999-.3182l-3.3343-3.3343-5.3589,5.3598,3.3343,3.3343a1.79149,1.79149,0,0,1,.3181,2.1008,16.774,16.774,0,0,0-1.1806,2.8729,1.78754,1.78754,0,0,1-1.7091,1.2601h-4.7253v7.5776h4.7253a1.78727,1.78727,0,0,1,1.7091,1.2598,16.77728,16.77728,0,0,0,1.1806,2.8732,1.791,1.791,0,0,1-.3181,2.1005l-3.3343,3.3343,5.3589,5.3583,3.3343-3.3346a1.78849,1.78849,0,0,1,2.0999-.3178,16.81788,16.81788,0,0,0,2.8738,1.1812,1.79,1.79,0,0,1,1.2601,1.7091Z" style="fill: #2b3456"/>
    <path d="M90.07733,104.56258a14.55561,14.55561,0,1,1,10.2987-4.2571A14.52179,14.52179,0,0,1,90.07733,104.56258Zm-7.768-22.3238a10.987,10.987,0,1,0,7.768-3.2171,11.00016,11.00016,0,0,0-7.768,3.2171Z" style="fill: #2b3456"/>
    <path d="M37.28583,51.773a14.55561,14.55561,0,1,1,10.2986-4.2571A14.52187,14.52187,0,0,1,37.28583,51.773Zm-7.7681-22.3238a10.98709,10.98709,0,1,0,7.7681-3.2171,11.00016,11.00016,0,0,0-7.7681,3.2171Z" style="fill: #2b3456"/>
    <path d="M104.44433,71.55758a1.66319,1.66319,0,0,1-.2614-.0192,1.78925,1.78925,0,0,1-1.5115-2.029,38.92249,38.92249,0,0,0-11.0359-33.4625,2.59356,2.59356,0,0,1-.2056-.1852c-.0313-.0316-.1527-.1645-.1816-.1976a38.8408,38.8408,0,0,0-20.9447-10.8788,1.78913,1.78913,0,0,1-.5104-3.3553l8.876-4.5489a1.789,1.789,0,1,1,1.6323,3.1839l-4.5377,2.3262a42.39721,42.39721,0,0,1,18.0115,10.7355c.0313.0313.1557.1678.1843.2009.0281.0227.1634.1468.1896.1713a42.478,42.478,0,0,1,12.0627,36.528A1.78957,1.78957,0,0,1,104.44433,71.55758Z" style="fill: #2b3456"/>
    <path d="M76.99233,33.21388a1.78389,1.78389,0,0,1-1.427-.7078l-6.3812-8.4022a1.78928,1.78928,0,0,1,2.8505-2.1635l6.3812,8.4023a1.78972,1.78972,0,0,1-1.4235,2.8712Z" style="fill: #2b3456"/>
    <path d="M56.75633,105.98868a1.784,1.784,0,0,1-1.427-.708l-6.3812-8.4023a1.78913,1.78913,0,1,1,2.8502-2.1634l6.3815,8.4023a1.79,1.79,0,0,1-1.4235,2.8714Z" style="fill: #2b3456"/>
  </g>
</svg>
