<svg id="Capa_1" data-name="Capa 1" xmlns="http://www.w3.org/2000/svg" viewBox="0 0 142 116">
  <circle cx="17.99771" cy="66.56236" r="11.03896" transform="translate(-41.79529 32.22197) rotate(-45)" style="fill: #2ba5db"/>
  <g>
    <path d="M18.18643,67.664a1.99713,1.99713,0,0,1-1.9863-2.2086l1.6898-15.9098a7.88014,7.88014,0,0,0-.7882-4.2854,21.34147,21.34147,0,0,1-2.2204-9.3924c0-15.5148,17.3117-28.1364,38.5919-28.1364,21.28,0,38.5916,12.6216,38.5916,28.1364,0,15.5147-17.3116,28.136-38.5916,28.136a50.32108,50.32108,0,0,1-19.0443-3.6428,7.756,7.756,0,0,0-7.7927,1.1104l-7.2033,5.7556A1.99793,1.99793,0,0,1,18.18643,67.664Zm35.2868-55.9366c-19.0756,0-34.5963,10.8292-34.5963,24.1404a17.349,17.349,0,0,0,1.8184,7.6432,11.87978,11.87978,0,0,1,1.1667,6.4571l-1.1842,11.1491,3.463-2.7665a11.74368,11.74368,0,0,1,11.8136-1.6829,46.29385,46.29385,0,0,0,17.5188,3.3404c19.0754,0,34.596-10.8296,34.596-24.1404C88.06923,22.55658,72.54863,11.72738,53.47323,11.72738Z" style="fill: #2b3456"/>
    <path d="M41.01453,36.21628a4.7049,4.7049,0,1,1-4.7049-4.7049A4.70511,4.70511,0,0,1,41.01453,36.21628Z" style="fill: #2b3456"/>
    <path d="M57.95063,36.21628a4.705,4.705,0,1,1-4.7049-4.7049A4.70491,4.70491,0,0,1,57.95063,36.21628Z" style="fill: #2b3456"/>
    <path d="M74.887,36.21628a4.705,4.705,0,1,1-4.7049-4.7049A4.70511,4.70511,0,0,1,74.887,36.21628Z" style="fill: #2b3456"/>
    <path d="M104.64423,71.34388a4.705,4.705,0,1,0,4.705-4.7049A4.70513,4.70513,0,0,0,104.64423,71.34388Z" style="fill: #2b3456"/>
    <path d="M87.70813,71.34388a4.705,4.705,0,1,0,4.705-4.7049A4.70494,4.70494,0,0,0,87.70813,71.34388Z" style="fill: #2b3456"/>
    <path d="M70.77173,71.34388a4.705,4.705,0,1,0,4.705-4.7049A4.70519,4.70519,0,0,0,70.77173,71.34388Z" style="fill: #2b3456"/>
    <path d="M127.47283,102.79088a1.99386,1.99386,0,0,1-1.2469-.4373l-7.2014-5.7546a7.75166,7.75166,0,0,0-7.7963-1.11,50.321,50.321,0,0,1-19.0443,3.6427c-21.2783,0-38.59-12.6216-38.59-28.1363a21.59707,21.59707,0,0,1,2.6086-10.1377,2.00051,2.00051,0,0,1,1.5941-1.0583c12.8439-1.1268,23.6214-7.1275,28.1245-15.6582a1.99863,1.99863,0,0,1,1.5941-1.0576c1.7518-.153,3.2348-.2242,4.6687-.2242,21.2802,0,38.5919,12.6212,38.5919,28.136a21.34018,21.34018,0,0,1-2.2184,9.3914,7.88424,7.88424,0,0,0-.7882,4.2855l1.6898,15.9098a1.99791,1.99791,0,0,1-1.9862,2.2088ZM114.182,90.907a11.74754,11.74754,0,0,1,7.336,2.5703l3.4633,2.7669-1.1842-11.1495a11.883,11.883,0,0,1,1.1664-6.4571,17.34852,17.34852,0,0,0,1.8164-7.6422c0-13.3112-15.5203-24.1404-34.596-24.1404-1.0243,0-2.0816.0399-3.2717.125-5.2524,8.9465-16.4279,15.2446-29.6444,16.6894a17.326,17.326,0,0,0-1.678,7.326c0,13.3111,15.5187,24.1404,34.5941,24.1404a46.289,46.289,0,0,0,17.5184-3.3403A11.74718,11.74718,0,0,1,114.182,90.907Z" style="fill: #2b3456"/>
    <path d="M128.784,49.01108a1.98488,1.98488,0,0,1-1.245-.4373c-.9715-.7753-2.0096-1.5305-3.0867-2.2445a1.99817,1.99817,0,0,1,2.2089-3.3304c1.1743.7792,2.3097,1.6047,3.3713,2.4532a1.99813,1.99813,0,0,1-1.2485,3.559Z" style="fill: #2b3456"/>
    <path d="M117.88513,42.49728a1.98678,1.98678,0,0,1-.8016-.1699,56.89479,56.89479,0,0,0-7.9546-2.8004,1.99791,1.99791,0,0,1,1.0496-3.8555,60.85736,60.85736,0,0,1,8.5126,2.9977,1.99876,1.99876,0,0,1-.806,3.8281Z" style="fill: #2b3456"/>
    <path d="M101.08663,37.886a1.97516,1.97516,0,0,1-.2596-.0165q-1.90785-.24885-3.863-.3895a1.99793,1.99793,0,0,1,.2849-3.9857q2.07225.14745,4.0932.4126a1.99794,1.99794,0,0,1-.2555,3.9791Z" style="fill: #2b3456"/>
  </g>
</svg>
