<svg id="Capa_1" data-name="Capa 1" xmlns="http://www.w3.org/2000/svg" viewBox="0 0 96 116">
  <circle cx="34.26531" cy="41.74246" r="9.03716" transform="translate(-19.4803 36.45532) rotate(-45)" style="fill: #2ba5db"/>
  <g>
    <path d="M58.02743,104.20108H45.45553a1.68065,1.68065,0,0,1,0-3.3613h10.891V85.85848a1.68077,1.68077,0,0,1,1.6809-1.6807h11.2119a8.76164,8.76164,0,0,0,8.7522-8.7516v-1.2121l-1.3532-1.0293a1.67928,1.67928,0,0,1-.4464-.5121,3.98448,3.98448,0,0,1,1.3985-5.376l2.8927-1.7677v-3.3868a3.03691,3.03691,0,0,1,3.0339-3.034h1.1491a.78871.78871,0,0,0,.6589-1.222l-5.4606-8.2953a6.38881,6.38881,0,0,1-1.0145-4.2979,28.36862,28.36862,0,0,0,.2316-3.5533,30.81926,30.81926,0,0,0-9.7546-22.4485,30.73617,30.73617,0,0,0-29.6626-7.0053,1.68045,1.68045,0,1,1-.9572-3.2217,34.09678,34.09678,0,0,1,32.9136,7.7698,34.19178,34.19178,0,0,1,10.8221,24.9057,31.74421,31.74421,0,0,1-.2577,3.9702,3.02985,3.02985,0,0,0,.4866,2.0327l5.4609,8.2945a4.15037,4.15037,0,0,1-3.4665,6.4324h-.8214V66.472a1.68208,1.68208,0,0,1-.8043,1.4345l-3.6972,2.2591a.63262.63262,0,0,0-.3002.6248l1.647,1.2531a1.68008,1.68008,0,0,1,.6631,1.3375v2.0452a12.1271,12.1271,0,0,1-12.1138,12.1129H59.708v14.9813A1.6809,1.6809,0,0,1,58.02743,104.20108Z" style="fill: #2b3456"/>
    <path d="M34.26583,62.49588a20.75345,20.75345,0,1,1,20.7529-20.7532A20.77707,20.77707,0,0,1,34.26583,62.49588Zm0-38.1453a17.39185,17.39185,0,1,0,17.3916,17.3921A17.41191,17.41191,0,0,0,34.26583,24.35058Z" style="fill: #2b3456"/>
    <path d="M45.72713,76.25928H22.80453a1.68112,1.68112,0,0,1-1.6226-1.2426l-3.3672-12.4659a26.54114,26.54114,0,1,1,43.0028-20.8081,26.33522,26.33522,0,0,1-10.1006,20.8081l-3.3674,12.4659A1.6808,1.6808,0,0,1,45.72713,76.25928Zm-21.6359-3.3616h20.3492l3.1785-11.7692a1.68093,1.68093,0,0,1,.6081-.902,23.17977,23.17977,0,1,0-37.1523-18.4838,23.01034,23.01034,0,0,0,9.2299,18.4838,1.68039,1.68039,0,0,1,.6081.902Z" style="fill: #2b3456"/>
    <path d="M34.26583,68.29458a26.65511,26.65511,0,0,1-5.5355-.5787,1.68037,1.68037,0,1,1,.6978-3.2875,23.24384,23.24384,0,0,0,20.5018-5.5846,1.681,1.681,0,0,1,2.2715,2.4786A26.48406,26.48406,0,0,1,34.26583,68.29458Z" style="fill: #2b3456"/>
    <path d="M43.43423,80.91558H25.09743a1.681,1.681,0,0,1-1.6809-1.6807v-4.6566a1.681,1.681,0,0,1,1.6809-1.6806h18.3368a1.68077,1.68077,0,0,1,1.6807,1.6806v4.6566A1.6808,1.6808,0,0,1,43.43423,80.91558ZM26.77813,77.554h14.9755v-1.2947H26.77813Z" style="fill: #2b3456"/>
    <path d="M45.23553,98.93078H23.29613a3.80942,3.80942,0,0,1-3.8054-3.8046V81.35948a3.80961,3.80961,0,0,1,3.8054-3.8055h21.9394a3.80963,3.80963,0,0,1,3.8055,3.8055v13.7667A3.80944,3.80944,0,0,1,45.23553,98.93078Zm-21.9394-18.0152a.44485.44485,0,0,0-.4441.4439v13.7667a.44389.44389,0,0,0,.4441.443h21.9394a.444.444,0,0,0,.4442-.443V81.35948a.44494.44494,0,0,0-.4442-.4439Z" style="fill: #2b3456"/>
    <path d="M39.61653,86.56178H21.17133a1.6808,1.6808,0,0,1,0-3.3616h18.4452a1.6808,1.6808,0,0,1,0,3.3616Z" style="fill: #2b3456"/>
    <path d="M42.19743,93.08018H21.17133a1.68065,1.68065,0,0,1,0-3.3613h21.0261a1.68065,1.68065,0,1,1,0,3.3613Z" style="fill: #2b3456"/>
    <path d="M34.26583,104.20108a6.6094,6.6094,0,0,1-6.6013-6.6014v-.3495a1.68084,1.68084,0,0,1,1.6806-1.681h9.8406a1.68077,1.68077,0,0,1,1.6806,1.681v.3495A6.60865,6.60865,0,0,1,34.26583,104.20108Zm-2.9534-5.2703a3.23855,3.23855,0,0,0,5.9061,0Z" style="fill: #2b3456"/>
  </g>
</svg>
