<svg id="Capa_1" data-name="Capa 1" xmlns="http://www.w3.org/2000/svg" viewBox="0 0 98 123">
  <circle cx="16.38386" cy="17.47768" r="10.42907" style="fill: #2b3456"/>
  <path d="M45.1581,39.82464a7.52761,7.52761,0,1,1,7.52676-7.52845A7.53658,7.53658,0,0,1,45.1581,39.82464Zm0-11.63136A4.10362,4.10362,0,1,0,49.261,32.29619,4.10779,4.10779,0,0,0,45.1581,28.19328Z" style="fill: #2ba5db"/>
  <path d="M57.6036,57.68512a1.71075,1.71075,0,0,1-1.71192-1.71193V49.25238a4.58941,4.58941,0,0,0-4.58444-4.58444H39.01066a4.58934,4.58934,0,0,0-4.58414,4.58444v6.72081a1.71208,1.71208,0,0,1-3.42415,0V49.25238a8.01779,8.01779,0,0,1,8.00829-8.00829H51.30724a8.01779,8.01779,0,0,1,8.00829,8.00829v6.72081A1.71076,1.71076,0,0,1,57.6036,57.68512Z" style="fill: #2ba5db"/>
  <path d="M39.79823,57.68512a1.711,1.711,0,0,1-1.71218-1.71193V53.56412a1.71206,1.71206,0,1,1,3.42411,0v2.40907A1.71094,1.71094,0,0,1,39.79823,57.68512Z" style="fill: #2ba5db"/>
  <path d="M50.52,57.68512a1.711,1.711,0,0,1-1.71223-1.71193V53.56412a1.71207,1.71207,0,1,1,3.42413,0v2.40907A1.71093,1.71093,0,0,1,50.52,57.68512Z" style="fill: #2ba5db"/>
  <path d="M67.84208,64.10837h-45.368a1.71193,1.71193,0,0,1,0-3.42385h45.368a1.71193,1.71193,0,1,1,0,3.42385Z" style="fill: #2ba5db"/>
  <path d="M67.84208,73.09639h-45.368a1.71192,1.71192,0,1,1,0-3.42384h45.368a1.71192,1.71192,0,1,1,0,3.42384Z" style="fill: #2ba5db"/>
  <path d="M72.86624,82.08442H22.47411a1.71193,1.71193,0,0,1,0-3.42385H72.86624a1.71193,1.71193,0,0,1,0,3.42385Z" style="fill: #2ba5db"/>
  <path d="M63.03892,91.07245H22.47411a1.71193,1.71193,0,0,1,0-3.42385H63.03892a1.71193,1.71193,0,0,1,0,3.42385Z" style="fill: #2ba5db"/>
  <path d="M62.13944,100.06048H22.47411a1.71207,1.71207,0,0,1,0-3.42414H62.13944a1.71207,1.71207,0,0,1,0,3.42414Z" style="fill: #2ba5db"/>
  <path d="M71.78788,111.65313H12.774a1.71093,1.71093,0,0,1-1.7119-1.71193V20.63148a1.71093,1.71093,0,0,1,1.7119-1.71193h64.77a1.711,1.711,0,0,1,1.71218,1.71193V79.66207A1.71116,1.71116,0,0,1,77.544,81.374a13.974,13.974,0,0,0-5.12761,26.97567,1.71149,1.71149,0,0,1-.62847,3.30347Zm-57.302-3.42385H65.82581A17.41,17.41,0,0,1,75.832,78.03351V22.3434H14.48588Z" style="fill: #2ba5db"/>
  <path d="M77.544,112.75664a17.40339,17.40339,0,1,1,17.40435-17.4041A17.42408,17.42408,0,0,1,77.544,112.75664Zm0-31.38265A13.9794,13.9794,0,1,0,91.52418,95.35254,13.99536,13.99536,0,0,0,77.544,81.374Z" style="fill: #2ba5db"/>
  <path d="M75.97076,103.59143a1.72149,1.72149,0,0,1-1.38268-.70224l-6.09887-8.346a1.71209,1.71209,0,0,1,2.76514-2.01967l4.74975,6.5004,7.32782-9.53964a1.71208,1.71208,0,1,1,2.71514,2.08635l-8.71874,11.35217A1.7147,1.7147,0,0,1,75.97076,103.59143Z" style="fill: #2ba5db"/>
  <path d="M84.68948,83.106a1.69638,1.69638,0,0,1-.7808-.18905A13.83546,13.83546,0,0,0,77.544,81.374a1.7111,1.7111,0,0,1-1.712-1.71192V22.3434H19.91951a1.71093,1.71093,0,0,1-1.71193-1.71192V14.2834a1.71094,1.71094,0,0,1,1.71193-1.71193h64.77a1.711,1.711,0,0,1,1.7122,1.71193V81.39406a1.71073,1.71073,0,0,1-1.7122,1.71192Zm-5.43334-5.07247a17.0414,17.0414,0,0,1,3.72141.78927V15.99532H21.63171v2.92423H77.544a1.711,1.711,0,0,1,1.71218,1.71193Z" style="fill: #2ba5db"/>
</svg>
