<svg id="Capa_1" data-name="Capa 1" xmlns="http://www.w3.org/2000/svg" viewBox="0 0 114 111">
  <circle cx="66.3072" cy="31.56282" r="8.54281" style="fill: #2b3456"/>
  <g>
    <path d="M71.579,57.9751H60.52464a1.61589,1.61589,0,0,1-1.61609-1.61635V41.20492a3.27039,3.27039,0,0,1,1.54513-2.79281,3.3287,3.3287,0,0,1,3.24818-.15846,6.7599,6.7599,0,0,0,8.07137-1.79936,6.6711,6.6711,0,0,0-8.08551-10.22153,3.30425,3.30425,0,0,1-4.77917-2.95633V13.39876a1.61583,1.61583,0,0,1,1.61609-1.61608H98.39707a6.71244,6.71244,0,0,1,6.70471,6.70391v5.4813a1.61622,1.61622,0,0,1-3.23244,0v-5.4813a3.47553,3.47553,0,0,0-3.47227-3.47147H62.141v8.26131a10.6728,10.6728,0,0,1,6.57506-.72428,9.91582,9.91582,0,0,1-2.12746,19.6006,9.706,9.706,0,0,1-4.30728-.99665l-.12618,13.58656H71.579a1.61622,1.61622,0,0,1,0,3.23244Z" style="fill: #2ba5db"/>
    <path d="M103.48546,51.44326a1.61584,1.61584,0,0,1-1.61612-1.61609V44.17059a1.61622,1.61622,0,0,1,3.23244,0v5.65658A1.61589,1.61589,0,0,1,103.48546,51.44326Z" style="fill: #2ba5db"/>
    <path d="M103.48546,31.24056a1.61584,1.61584,0,0,1-1.61612-1.61609V23.96789a1.61622,1.61622,0,1,1,3.23244,0v5.65658A1.61589,1.61589,0,0,1,103.48546,31.24056Z" style="fill: #2ba5db"/>
    <path d="M103.48546,57.9751H94.45929a1.61622,1.61622,0,0,1,0-3.23244h7.41V49.82717a1.61622,1.61622,0,0,1,3.23244,0v6.53158A1.61593,1.61593,0,0,1,103.48546,57.9751Z" style="fill: #2ba5db"/>
    <path d="M98.39707,100.93482H60.52464a1.61566,1.61566,0,0,1-1.61609-1.61609V88.43721a1.61623,1.61623,0,0,1,3.23245,0v9.26543H98.39707a3.47571,3.47571,0,0,0,3.47227-3.47147V57.9751H92.77517a10.61134,10.61134,0,0,1,.791,6.62388,9.9157,9.9157,0,0,1-19.6118-2.07466,9.67688,9.67688,0,0,1,1.05107-4.4105l-12.86441-.123v9.1083a1.61623,1.61623,0,0,1-3.23245,0V56.35875a1.61583,1.61583,0,0,1,1.61609-1.61609H74.95819a3.26544,3.26544,0,0,1,2.80294,1.56246,3.3249,3.3249,0,0,1,.12939,3.26713,6.4789,6.4789,0,0,0-.704,2.95207A6.67977,6.67977,0,1,0,89.83964,59.565a3.31146,3.31146,0,0,1,.12645-3.25351,3.2711,3.2711,0,0,1,2.80908-1.56887h10.71029a1.61588,1.61588,0,0,1,1.61632,1.61609V94.23117A6.71221,6.71221,0,0,1,98.39707,100.93482Z" style="fill: #2ba5db"/>
    <path d="M60.52464,100.93482H22.65248a6.71085,6.71085,0,0,1-6.70311-6.70365V56.35875a1.61589,1.61589,0,0,1,1.61636-1.61609h6.5892a1.61622,1.61622,0,0,1,0,3.23244H19.18182V94.23117a3.47433,3.47433,0,0,0,3.47066,3.47147H58.90855V86.04242a10.4584,10.4584,0,0,1-7.60879,1.53393,9.91482,9.91482,0,0,1,1.87646-19.65022,9.76,9.76,0,0,1,5.603,1.7564l.11365-11.70743h-12.544a1.61622,1.61622,0,1,1,0-3.23244H60.52464A1.61589,1.61589,0,0,1,62.141,56.35875V69.63532a3.30488,3.30488,0,0,1-5.20841,2.7005,6.54344,6.54344,0,0,0-3.75637-1.17752,6.67986,6.67986,0,1,0,3.75637,12.18362,3.30428,3.30428,0,0,1,5.20841,2.7005V99.31873A1.61572,1.61572,0,0,1,60.52464,100.93482Z" style="fill: #2ba5db"/>
    <path d="M60.52464,57.9751H43.1716a3.36141,3.36141,0,0,1-2.88674-1.66117,3.18729,3.18729,0,0,1-.04108-3.20017,6.452,6.452,0,0,0,.83979-3.20309A6.68155,6.68155,0,0,0,27.84968,48.596a6.58481,6.58481,0,0,0,.67546,4.45078A3.32108,3.32108,0,0,1,28.478,56.366a3.26051,3.26051,0,0,1-2.83151,1.60915H17.56573a1.61594,1.61594,0,0,1-1.61636-1.61635V18.48659a6.71107,6.71107,0,0,1,6.70311-6.70391H60.52464A1.61589,1.61589,0,0,1,62.141,13.39876v8.125a1.61623,1.61623,0,1,1-3.23245,0V15.01512H22.65248a3.47416,3.47416,0,0,0-3.47066,3.47147V54.74266h6.46462a10.5811,10.5811,0,0,1-.97238-6.75513,9.915,9.915,0,0,1,19.64168,1.92314,9.78258,9.78258,0,0,1-1.25461,4.7877l15.84742.04029V42.95519a1.61623,1.61623,0,0,1,3.23245,0V56.35875A1.61594,1.61594,0,0,1,60.52464,57.9751Z" style="fill: #2ba5db"/>
  </g>
</svg>
