<svg id="Capa_1" data-name="Capa 1" xmlns="http://www.w3.org/2000/svg" viewBox="0 0 118 129">
  <circle cx="97.92273" cy="27.39536" r="9.10977" transform="translate(35.13937 107.38046) rotate(-67.50004)" style="fill: #2ba5db"/>
  <g>
    <path d="M31.78783,113.42458a20.45239,20.45239,0,0,1-5.1043-.646,1.694,1.694,0,0,1-.7743-2.8385l5.9779-5.9793A7.82919,7.82919,0,1,0,20.815,92.88858l-5.9794,5.9788a1.69412,1.69412,0,0,1-2.839-.7752,20.45978,20.45978,0,0,1,26.1512-24.5977L72.42943,39.212a20.46015,20.46015,0,0,1,24.5994-26.1506,1.694,1.694,0,0,1,.7743,2.8385l-5.9793,5.9793a7.82969,7.82969,0,1,0,11.0736,11.0721l5.9779-5.9787a1.69449,1.69449,0,0,1,2.8391.7743,20.45874,20.45874,0,0,1-26.1498,24.5986L51.28123,86.628a20.44124,20.44124,0,0,1-19.4934,26.7966Zm-1.1466-3.4258a17.06191,17.06191,0,0,0,17.106-23.2019,1.69324,1.69324,0,0,1,.3823-1.8085L83.925,49.19378a1.69824,1.69824,0,0,1,1.8085-.3823,17.06207,17.06207,0,0,0,23.2014-17.106l-3.6417,3.6414A11.21779,11.21779,0,1,1,89.428,19.48338l3.6417-3.6423a17.06364,17.06364,0,0,0-17.1063,23.202,1.69238,1.69238,0,0,1-.382,1.8085l-35.794,35.7946a1.68893,1.68893,0,0,1-1.8083.3823,17.06207,17.06207,0,0,0-23.2014,17.106l3.6417-3.6414a11.21719,11.21719,0,1,1,15.8635,15.8635Z" style="fill: #2b3456"/>
    <path d="M49.43663,30.94338a1.68873,1.68873,0,0,1-1.198-.4964l-9.2603-9.2611a1.69405,1.69405,0,0,1,0-2.3958l5.9945-5.995a1.74367,1.74367,0,0,1,2.3955,0l9.2622,9.2611a1.69357,1.69357,0,0,1,0,2.3958l-5.9961,5.995A1.6876,1.6876,0,0,1,49.43663,30.94338Zm-6.8647-10.9552,6.8647,6.8652L53.037,23.254l-6.8665-6.8653Z" style="fill: #2b3456"/>
    <path d="M21.66873,70.63608a1.69315,1.69315,0,0,1-1.5518-1.0148c-8.5837-19.602.4234-34.3687,11.714-41.6517a44.25184,44.25184,0,0,0,7.2235-5.9184l1.5918-1.5924a1.74357,1.74357,0,0,1,2.3955,0l5.5792,5.5783a1.69276,1.69276,0,0,1,.1969,2.159l-4.4259,6.4245a2.62367,2.62367,0,0,0,.3062,3.3422l6.6329,6.6337a1.69387,1.69387,0,0,1,0,2.3958l-11.1563,11.1563a1.69333,1.69333,0,0,1-2.3958,0l-6.8267-6.8255a2.42328,2.42328,0,0,0-2.0896-.7719,3.27907,3.27907,0,0,0-2.2932,1.8307c-2.9036,5.4054-3.2048,16.4899-3.2065,16.6006a1.69444,1.69444,0,0,1-1.3664,1.6215A1.71944,1.71944,0,0,1,21.66873,70.63608ZM41.844,24.05328l-.3938.3937a47.56849,47.56849,0,0,1-7.7828,6.37c-4.3185,2.7862-16.651,12.4534-12.9352,29.8622a32.57464,32.57464,0,0,1,2.8525-9.9015,6.6119,6.6119,0,0,1,4.7849-3.5784,5.79933,5.79933,0,0,1,4.9784,1.728l5.6287,5.6278,8.7608-8.7605-5.4352-5.436a6.00871,6.00871,0,0,1-.7-7.6606l3.6252-5.2629Z" style="fill: #2b3456"/>
    <path d="M49.64833,66.08388a1.69279,1.69279,0,0,1-1.1977-.4964l-9.0553-9.0544a1.69351,1.69351,0,0,1,0-2.3958l8.2361-8.2379a1.74458,1.74458,0,0,1,2.3959,0l9.0552,9.0553a1.69387,1.69387,0,0,1,0,2.3958l-8.2364,8.237A1.69233,1.69233,0,0,1,49.64833,66.08388Zm-6.6594-10.7486,6.6594,6.6586,5.8406-5.8414-6.6594-6.6595Z" style="fill: #2b3456"/>
    <path d="M99.51723,113.54118a7.46877,7.46877,0,0,1-5.316-2.202l-35.013-35.0129a1.69357,1.69357,0,0,1,0-2.3958l8.2379-8.237a1.69333,1.69333,0,0,1,2.3958,0l35.0129,35.0129a7.5184,7.5184,0,0,1-5.3176,12.8348Zm-36.7354-38.413,33.8152,33.8152a4.13071,4.13071,0,1,0,5.842-5.8414l-33.8149-33.8149Z" style="fill: #2b3456"/>
    <path d="M68.95663,85.39218A1.6943,1.6943,0,0,1,67.75893,82.5l8.2361-8.237a1.694,1.694,0,0,1,2.3956,2.3958l-8.2362,8.237A1.68885,1.68885,0,0,1,68.95663,85.39218Z" style="fill: #2b3456"/>
  </g>
</svg>
