<svg id="Capa_1" data-name="Capa 1" xmlns="http://www.w3.org/2000/svg" viewBox="0 0 110 127">
  <g>
    <circle cx="56.63261" cy="53.45316" r="10.48856" transform="translate(-21.20978 55.70137) rotate(-45)" style="fill: #2ba5db"/>
    <g>
      <path d="M97.48133,80.20368H13.23793a5.02684,5.02684,0,0,1-5.0213-5.0212v-51.328a5.02684,5.02684,0,0,1,5.0213-5.0212h10.2858v3.3475H13.23793a1.67576,1.67576,0,0,0-1.6737,1.6737v51.328a1.67589,1.67589,0,0,0,1.6737,1.6737h84.2434a1.67609,1.67609,0,0,0,1.6737-1.6737v-51.328a1.676,1.676,0,0,0-1.6737-1.6737H61.96123v-3.3475h35.5201a5.0265,5.0265,0,0,1,5.0209,5.0212v51.328A5.0265,5.0265,0,0,1,97.48133,80.20368Z" style="fill: #2b3456"/>
      <path d="M29.38173,22.18078h-5.858a1.67375,1.67375,0,0,1,0-3.3475h5.858a1.67375,1.67375,0,0,1,0,3.3475Z" style="fill: #2b3456"/>
      <path d="M47.19623,22.18078H38.289a1.67375,1.67375,0,0,1,0-3.3475h8.9072a1.67375,1.67375,0,0,1,0,3.3475Z" style="fill: #2b3456"/>
      <path d="M61.96123,22.18078h-5.858a1.67375,1.67375,0,0,1,0-3.3475h5.858a1.67375,1.67375,0,0,1,0,3.3475Z" style="fill: #2b3456"/>
      <path d="M26.66183,51.85508a6.5903,6.5903,0,1,1,6.5905-6.5905A6.59848,6.59848,0,0,1,26.66183,51.85508Zm0-9.8331a3.24275,3.24275,0,1,0,3.2429,3.2426A3.24616,3.24616,0,0,0,26.66183,42.022Z" style="fill: #2b3456"/>
      <path d="M57.04473,60.53738a6.5903,6.5903,0,1,1,6.5902-6.5901A6.59822,6.59822,0,0,1,57.04473,60.53738Zm0-9.833a3.2427,3.2427,0,1,0,3.2429,3.2429A3.24656,3.24656,0,0,0,57.04473,50.70438Z" style="fill: #2b3456"/>
      <path d="M87.73233,43.95478a6.5903,6.5903,0,1,1,6.5901-6.5904A6.59828,6.59828,0,0,1,87.73233,43.95478Zm0-9.8333a3.2429,3.2429,0,1,0,3.2428,3.2429A3.24675,3.24675,0,0,0,87.73233,34.12148Z" style="fill: #2b3456"/>
      <rect x="40.17929" y="38.45161" width="3.34814" height="22.30865" transform="translate(-20.13076 68.85227) rotate(-67.09491)" style="fill: #2b3456"/>
      <rect x="59.06666" y="43.98189" width="26.64375" height="3.34773" transform="translate(-12.68484 54.98687) rotate(-38.49916)" style="fill: #2b3456"/>
      <path d="M92.64883,70.16128H80.84873a1.6738,1.6738,0,1,1,0-3.3476h11.8001a1.6738,1.6738,0,0,1,0,3.3476Z" style="fill: #2b3456"/>
      <path d="M44.02773,70.16128h-5.8581a1.6738,1.6738,0,0,1,0-3.3476h5.8581a1.6738,1.6738,0,0,1,0,3.3476Z" style="fill: #2b3456"/>
      <path d="M64.66953,70.16128H54.34863a1.6738,1.6738,0,0,1,0-3.3476h10.3209a1.6738,1.6738,0,1,1,0,3.3476Z" style="fill: #2b3456"/>
      <path d="M80.84873,70.16128h-5.858a1.6738,1.6738,0,1,1,0-3.3476h5.858a1.6738,1.6738,0,0,1,0,3.3476Z" style="fill: #2b3456"/>
      <path d="M38.16963,70.16128H21.74533a1.6738,1.6738,0,0,1,0-3.3476h16.4243a1.6738,1.6738,0,0,1,0,3.3476Z" style="fill: #2b3456"/>
      <path d="M60.79923,111.16728H49.92a1.67356,1.67356,0,0,1-1.6737-1.6736V78.52978a1.67375,1.67375,0,0,1,1.6737-1.6736h10.8792a1.674,1.674,0,0,1,1.6737,1.6736v30.9639A1.67375,1.67375,0,0,1,60.79923,111.16728Zm-9.2056-3.3473h7.5317V80.20368h-7.5317Z" style="fill: #2b3456"/>
      <path d="M91.51863,111.16728H18.50253a1.67365,1.67365,0,1,1,0-3.3473h73.0161a1.67365,1.67365,0,0,1,0,3.3473Z" style="fill: #2b3456"/>
    </g>
  </g>
</svg>
